<?xml version="1.0" encoding="UTF-8"?>
<svg version="1.1" xmlns="http://www.w3.org/2000/svg" width="512" height="512">
<path d="M0 0 C4.1351417 0.86148785 5.41888077 2.2945757 8 5.625 C8.72536344 8.68831944 8.67535098 11.67374705 8.63491821 14.8104248 C8.64271817 15.73813549 8.65051812 16.66584617 8.65855443 17.62166929 C8.67850648 20.73190682 8.66269694 23.84092515 8.64697266 26.95117188 C8.65374732 29.18022883 8.6626496 31.40928019 8.67352295 33.63832092 C8.69634049 39.69409182 8.68746951 45.74943738 8.67162752 51.80521584 C8.6589814 58.13834415 8.67070506 64.4714357 8.67855835 70.80456543 C8.68824179 82.12214352 8.67268942 93.43950535 8.64726166 104.7570402 C8.62492294 115.017322 8.62880312 125.27732096 8.65185547 135.53759766 C8.67861678 147.45425168 8.68857125 159.37073387 8.67379415 171.28742838 C8.66599313 177.59492186 8.66497614 183.90222052 8.68147659 190.20970154 C8.69590447 196.13926556 8.68592968 202.06829468 8.65700531 207.99780083 C8.6503856 210.1758733 8.65230718 212.35399067 8.66331863 214.53204536 C8.67695021 217.5018327 8.6598865 220.46989808 8.63491821 223.4395752 C8.64607182 224.30484565 8.65722543 225.17011611 8.66871703 226.06160688 C8.59801198 230.38675938 8.36919315 232.13434985 5.68688011 235.69908905 C3 237.625 3 237.625 -0.625 237.625 C-3.81585187 236.67956241 -5.10187442 236.26128553 -7 233.625 C-8.29158714 231.04182571 -8.13872254 229.160415 -8.15771484 226.26757812 C-8.16797699 225.14460327 -8.17823914 224.02162842 -8.18881226 222.86462402 C-8.19611359 221.6408606 -8.20341492 220.41709717 -8.2109375 219.15625 C-8.23904994 216.55598376 -8.26771457 213.95572345 -8.296875 211.35546875 C-8.33893587 207.2638696 -8.37569851 203.17230256 -8.40136719 199.08056641 C-8.59710742 171.44407079 -9.89578351 135.74151887 -30.71484375 114.42578125 C-40.31038693 106.86416517 -50.05342367 104.73215061 -62 105.625 C-72.8223264 108.02235078 -80.4777474 113.73119753 -86.5234375 122.91015625 C-91.4967116 132.05413906 -92.18786096 141.03331737 -89.3125 150.875 C-87.91552932 155.17451045 -86.31800761 159.3005477 -84.5 163.4375 C-76.65486111 181.96742928 -75.12992284 202.71517304 -74.5 222.625 C-72.85352507 272.87953111 -57.87855869 324.33095962 -20.859375 360.04296875 C11.99847693 389.71378859 53.24389359 398.95739522 96.49609375 398.92578125 C98.74178647 398.92967957 100.98747847 398.93401653 103.23316956 398.93876648 C107.91531781 398.94618125 112.59739059 398.94597165 117.27954102 398.94067383 C123.23453615 398.93487886 129.18922029 398.95183449 135.14416409 398.9750185 C139.77457946 398.98985511 144.40492158 398.99061424 149.03535652 398.98750877 C151.22906168 398.98801678 153.42277151 398.99315487 155.61645317 399.00332069 C171.55396358 399.06814454 186.94159009 398.25652895 202.125 392.9375 C202.86524414 392.68258789 203.60548828 392.42767578 204.36816406 392.16503906 C233.63965481 381.67243189 255.08397237 359.79618037 272.33789062 334.67724609 C275.77953901 329.73523049 275.77953901 329.73523049 278 328.625 C282.0130324 328.08992901 283.53928033 328.29448372 286.875 330.6875 C289.55167904 334.38761514 289.41688391 336.1303206 289 340.625 C286.89245838 344.97897566 283.88394528 348.75305761 281 352.625 C280.6090918 353.16543945 280.21818359 353.70587891 279.81542969 354.26269531 C256.14578263 386.88321135 223.09974487 408.64448695 183.22051811 415.19176292 C178.42606458 415.83673214 173.70478728 415.91222546 168.87329102 415.8996582 C167.31192162 415.9073246 167.31192162 415.9073246 165.7190094 415.91514587 C162.31391471 415.92892317 158.90902533 415.92809308 155.50390625 415.92578125 C153.1051374 415.92967662 150.70636923 415.934013 148.30760193 415.93876648 C143.28878543 415.94620476 138.27003928 415.94595622 133.2512207 415.94067383 C126.87725679 415.93490352 120.50358576 415.95176308 114.12967014 415.9750185 C109.17482368 415.98988909 104.22004542 415.99060924 99.26518059 415.98750877 C96.91848105 415.98801602 94.57177707 415.99313904 92.22509956 416.00332069 C48.72579756 416.16881913 2.5698947 405.9238477 -29.84375 374.85791016 C-31.57837227 373.1284282 -33.29236358 371.38108552 -35 369.625 C-36.31291016 368.31595703 -36.31291016 368.31595703 -37.65234375 366.98046875 C-72.83895012 331.67676885 -89.95067462 280.41325818 -91.2902832 231.17749023 C-91.93976778 207.77545662 -93.26627209 183.96167911 -103.60546875 162.62890625 C-109.17562378 150.63044905 -109.78097529 137.29419267 -106.09375 124.59375 C-100.83215056 110.31226582 -92.35900898 100.67630207 -79.25 93.09765625 C-71.43427816 89.55615729 -64.1878385 88.08764645 -55.625 88.1875 C-54.2486438 88.19885986 -54.2486438 88.19885986 -52.84448242 88.21044922 C-39.07876005 88.54379504 -26.95791568 94.11971685 -17 103.625 C-14.11357661 107.14976703 -11.52586751 110.83619874 -9 114.625 C-8.99945523 114.06785214 -8.99891047 113.51070429 -8.99834919 112.93667316 C-8.98337541 99.37379555 -8.94058856 85.81125057 -8.86790943 72.24855518 C-8.8336024 65.68966399 -8.8085236 59.13100666 -8.80444336 52.57202148 C-8.80016851 46.24352515 -8.77177226 39.91555669 -8.72656822 33.58722496 C-8.71356737 31.17151653 -8.70929463 28.755745 -8.71384621 26.34000587 C-8.71873348 22.95891777 -8.69274026 19.57938359 -8.65942383 16.19848633 C-8.66804947 15.19723221 -8.67667511 14.19597809 -8.68556213 13.16438293 C-8.60836452 8.49835162 -8.5250282 6.32135595 -5.64628601 2.5032196 C-3 0.625 -3 0.625 0 0 Z " fill="#000000" transform="translate(150,96.375)"/>
<path d="M0 0 C0.85722656 0.42410156 1.71445313 0.84820313 2.59765625 1.28515625 C14.25275819 7.59613905 20.73111261 17.70051713 25.05673218 30.00624084 C26.42169994 34.9153139 26.30794846 39.82961912 26.31884766 44.89233398 C26.32889328 45.96624893 26.3389389 47.04016388 26.34928894 48.1466217 C26.38006454 51.67977384 26.39714066 55.21285039 26.4140625 58.74609375 C26.43277864 61.20232287 26.45235239 63.6585456 26.4727478 66.11476135 C26.52402768 72.56729354 26.56367574 79.01984656 26.60089111 85.47247314 C26.64095663 92.06177914 26.69203738 98.65099878 26.7421875 105.24023438 C26.83889779 118.16009446 26.92369263 131.08000413 27 144 C27.61646896 143.58341629 28.23293793 143.16683258 28.86808777 142.73762512 C29.67756363 142.19361557 30.48703949 141.64960602 31.32104492 141.08911133 C32.12313889 140.54877762 32.92523285 140.00844391 33.75163269 139.45173645 C44.0972037 132.77175918 56.35907457 131.95170281 68.1875 134.27734375 C79.69992956 137.23539857 88.69022583 143.77756471 96 153 C96.804375 153.99 97.60875 154.98 98.4375 156 C98.953125 156.66 99.46875 157.32 100 158 C100.46148437 157.55269531 100.92296875 157.10539063 101.3984375 156.64453125 C112.00719314 146.81151466 123.66280558 143.13995092 138 143 C150.39135538 144.0034131 162.12692362 149.55643337 170.6875 158.625 C178.79386322 168.46574791 181.90605465 179.5635686 183 192 C183.61746094 191.60167969 184.23492187 191.20335937 184.87109375 190.79296875 C197.32638803 183.00130064 209.96606719 180.11408819 224.4921875 183.3125 C236.7114974 186.66234197 247.21779376 193.92314016 253.6953125 204.86328125 C258.74896514 214.47010402 260.30256177 222.9443924 260.2746582 233.72265625 C260.2823246 235.27373077 260.2823246 235.27373077 260.29014587 236.85614014 C260.3039851 240.25831994 260.30308724 243.66029546 260.30078125 247.0625 C260.30467544 249.45597405 260.30901158 251.84944742 260.31376648 254.24291992 C260.32121968 259.2628808 260.32094695 264.28277138 260.31567383 269.30273438 C260.30992528 275.66406026 260.32670216 282.02509059 260.3500185 288.3863678 C260.36493246 293.3370933 260.36560312 298.28775087 260.36250877 303.23849487 C260.36301467 305.57909727 260.36811094 307.91970424 260.37832069 310.26028442 C260.45599915 330.58346413 259.36168433 351.05096089 254.25 370.8125 C253.99686035 371.82530029 253.7437207 372.83810059 253.48291016 373.8815918 C251.70672677 380.77739434 249.6666908 387.57088198 247.375 394.3125 C247.09817383 395.13661377 246.82134766 395.96072754 246.53613281 396.80981445 C245.01766225 401.04850374 243.67996122 404.17262385 240 407 C236.31548282 408.17590974 234.71745725 408.33481338 231.1875 406.6875 C229 405 229 405 228 403 C227.1783234 395.90814841 229.88258666 389.9079317 232.25 383.3125 C241.17644142 357.44024259 243.32068801 332.10100896 243.30078125 304.8671875 C243.3046808 302.61044233 243.30901799 300.35369789 243.31376648 298.09695435 C243.32115942 293.40933834 243.3209852 288.72179779 243.31567383 284.03417969 C243.30984188 278.04722357 243.32693328 272.06057307 243.3500185 266.07366753 C243.36477675 261.43067645 243.36562547 256.78775906 243.36250877 252.14474869 C243.3630194 249.93688469 243.36820814 247.72901628 243.37832069 245.52117538 C243.39072957 242.43823123 243.38387022 239.3558846 243.37231445 236.27294922 C243.37995819 235.37719681 243.38760193 234.4814444 243.39547729 233.55854797 C243.31631161 223.94824279 241.06578195 215.23501742 234.24609375 208.1875 C226.53364264 200.94292753 220.0237804 199.40722198 209.48046875 199.64453125 C202.56022066 200.35131304 195.84415735 202.8867228 191 208 C182.90196983 219.58891034 182.66888841 229.20218738 182.52148438 243.03710938 C182.49505859 244.25591797 182.46863281 245.47472656 182.44140625 246.73046875 C182.42795166 247.83801514 182.41449707 248.94556152 182.40063477 250.08666992 C181.95449251 253.33092072 181.31235901 254.71044598 179 257 C175.02655839 258.10373378 172.91000228 258.41543583 169.125 256.6875 C167 255 167 255 166 253 C165.89991537 250.93425562 165.86439749 248.86527721 165.8581543 246.79711914 C165.84760262 244.83851707 165.84760262 244.83851707 165.83683777 242.84034729 C165.83411393 241.78910769 165.83411393 241.78910769 165.83133507 240.71663094 C165.82415766 238.5164302 165.80847705 236.31645098 165.78999329 234.11631775 C165.7376177 227.85939778 165.6896607 221.60259291 165.67407227 215.34545898 C165.66391071 211.51737256 165.63437256 207.68983521 165.59275246 203.86196709 C165.58054202 202.41136291 165.57530275 200.96068076 165.57755089 199.51002693 C165.59141643 187.63066503 164.30616938 177.52858065 155.79296875 168.65234375 C148.40953518 161.84800301 141.24454958 160.51672467 131.47265625 160.69140625 C123.13500128 161.43232272 116.44326539 165.72660699 111 172 C107.1762349 178.15787481 104.88671209 183.80808914 104.8581543 191.07226562 C104.85111984 192.08011108 104.84408539 193.08795654 104.83683777 194.12634277 C104.83059135 195.74989685 104.83059135 195.74989685 104.82421875 197.40625 C104.80103052 199.69922803 104.7769136 201.99219683 104.75195312 204.28515625 C104.71676788 207.8996407 104.68744899 211.51378266 104.67407227 215.12841797 C104.65863482 218.6172817 104.61846328 222.10514846 104.57421875 225.59375 C104.57612717 226.67611938 104.57803558 227.75848877 104.58000183 228.87365723 C104.56351089 229.88150269 104.54701996 230.88934814 104.5300293 231.92773438 C104.52416306 232.81279663 104.51829681 233.69785889 104.51225281 234.60974121 C103.83595601 237.76545717 102.46031905 238.98153805 100 241 C98 241.53125 98 241.53125 96 241.5 C95.01 241.51546875 95.01 241.51546875 94 241.53125 C91.06823509 240.75249994 89.90416088 239.3330302 88 237 C87.50793457 234.27720642 87.50793457 234.27720642 87.51757812 231.12084961 C87.51077026 229.93539047 87.5039624 228.74993134 87.49694824 227.52854919 C87.50826782 226.2494014 87.5195874 224.9702536 87.53125 223.65234375 C87.52641838 222.3167673 87.51925966 220.98119744 87.5098877 219.64564514 C87.48030212 214.69683133 87.49334011 209.74829516 87.50506592 204.79943848 C87.51333386 200.62305178 87.50505194 196.44729624 87.47593689 192.270998 C87.46893507 190.32868244 87.48567165 188.38632696 87.50305176 186.44407654 C87.44174859 175.57060854 85.4764018 166.66342853 77.79296875 158.65234375 C70.40953518 151.84800301 63.24454958 150.51672467 53.47265625 150.69140625 C45.12951519 151.43281024 38.45130378 155.72921918 33 162 C28.39140008 169.31886835 26.88167425 175.59576124 26.8581543 184.20532227 C26.85294266 185.26479568 26.85294266 185.26479568 26.84762573 186.34567261 C26.84030009 187.87233769 26.83493779 189.3990132 26.83133507 190.9256916 C26.82414068 193.34263276 26.80845457 195.7593743 26.78999329 198.17625427 C26.73764544 205.04545457 26.68951056 211.91453977 26.67407227 218.78393555 C26.66399789 222.99149393 26.63469681 227.19854078 26.59275246 231.40589714 C26.58043876 233.00742668 26.57532189 234.60902839 26.57755089 236.21060371 C26.57990096 238.44898415 26.55776622 240.68589092 26.5300293 242.92407227 C26.52122993 244.8333828 26.52122993 244.8333828 26.51225281 246.78126526 C25.90991407 250.5660539 25.06467848 251.76242311 22 254 C18.5625 254.5625 18.5625 254.5625 15 254 C11.27210218 251.22425287 10.11791343 249.74174792 9.38031673 245.10181141 C9.35723971 243.5406025 9.36164097 241.97884115 9.38768005 240.41767883 C9.37937993 239.12328448 9.37937993 239.12328448 9.37091213 237.80274075 C9.35833284 234.911384 9.38132299 232.02140561 9.40405273 229.13012695 C9.40214893 227.05696805 9.39799377 224.98381017 9.39175415 222.91065979 C9.38295746 218.44545556 9.38973105 213.9806397 9.40841484 209.51546669 C9.43748833 202.45097982 9.42971814 195.38682811 9.41651917 188.3223114 C9.39584129 174.59452467 9.41145696 160.86689957 9.43199158 147.13912201 C9.45711886 129.68355858 9.46996389 112.22808616 9.44203526 94.77251977 C9.43209419 87.75450339 9.44218223 80.73688889 9.46794307 73.71891654 C9.48014235 69.34480947 9.47589756 64.97082693 9.46736526 60.59671593 C9.46683161 58.57391714 9.47312998 56.55110277 9.48690605 54.52835083 C9.5726361 41.29368127 9.34203884 30.78630333 -0.20703125 20.6875 C-7.23487459 14.07305921 -14.28774369 12.50968901 -23.68359375 12.69140625 C-32.27908329 13.49122212 -39.41035636 17.44148479 -45 24 C-49.75605637 31.57183103 -51.12194148 38.1397184 -51.2109375 47.00390625 C-51.23898787 48.56446394 -51.26765219 50.1250107 -51.296875 51.68554688 C-51.33821262 54.13012594 -51.37512875 56.57449654 -51.40136719 59.01928711 C-51.42897024 61.38957991 -51.47481314 63.75896394 -51.5234375 66.12890625 C-51.52669037 66.85815811 -51.52994324 67.58740997 -51.53329468 68.33876038 C-51.6083573 71.43925722 -51.83077738 73.68634433 -53.31494141 76.43725586 C-55.97860362 78.90756908 -58.45915796 78.87575993 -62 79 C-64.56358753 78.23785235 -65.5768855 77.61361584 -67.08666992 75.42407227 C-68.39449181 71.95297803 -68.30520382 68.56195712 -68.30078125 64.90234375 C-68.30506638 64.11283829 -68.3093515 63.32333282 -68.31376648 62.50990295 C-68.3195036 60.83807328 -68.32001458 59.16621865 -68.31567383 57.49438477 C-68.31254086 54.97041541 -68.33588487 52.44765033 -68.36132812 49.92382812 C-68.41764512 35.79342218 -66.56010725 21.48870362 -56.6328125 10.5 C-41.43954784 -3.45744887 -19.26791937 -10.15599691 0 0 Z " fill="#000000" transform="translate(210,4)"/>
<path d="M0 0 C3.75224914 2.78950017 4.8841882 4.28015768 5.63491821 8.94641113 C5.66449734 10.51673505 5.66668418 12.08772435 5.64697266 13.65820312 C5.66011505 14.9493528 5.66011505 14.9493528 5.67352295 16.2665863 C5.69548812 19.10532382 5.68097474 21.94249729 5.6640625 24.78125 C5.66743147 26.7575307 5.67228476 28.73380939 5.67855835 30.71008301 C5.68592577 34.8494034 5.67522826 38.98818384 5.65185547 43.12744141 C5.6233679 48.43070707 5.63977256 53.73270757 5.66971779 59.03592682 C5.68779421 63.11608394 5.68203112 67.1959416 5.66907883 71.27610779 C5.66574577 73.23131968 5.66982835 75.18655885 5.68147659 77.14173889 C5.69419097 79.87582301 5.67480089 82.60786473 5.64697266 85.34179688 C5.65709381 86.148181 5.66721497 86.95456512 5.67764282 87.78538513 C5.60159517 91.82267361 5.17599379 93.77174962 2.68222046 97.00598145 C0 99 0 99 -3.5625 99.5625 C-7.65940228 98.89209781 -8.58933615 98.3309549 -11 95 C-11.39451796 91.96398473 -11.54718109 89.2913231 -11.51757812 86.25585938 C-11.5245874 85.37412552 -11.53159668 84.49239166 -11.53881836 83.5839386 C-11.55641921 80.67022175 -11.5447682 77.75747667 -11.53125 74.84375 C-11.53394431 72.81880507 -11.53782622 70.7938614 -11.54284668 68.7689209 C-11.54874456 64.52534668 -11.54016931 60.28210928 -11.52148438 56.03857422 C-11.4986948 50.59746237 -11.51181631 45.15713971 -11.53577423 39.71605682 C-11.55022428 35.53474983 -11.54562983 31.35363012 -11.53526306 27.1723175 C-11.53259359 25.16604011 -11.53587327 23.15974574 -11.54518127 21.15348816 C-11.5553337 18.34991376 -11.53986417 15.5476196 -11.51757812 12.74414062 C-11.52567505 11.9138887 -11.53377197 11.08363678 -11.54211426 10.22822571 C-11.48910401 6.63098311 -11.32068574 4.4431102 -9.18249512 1.48864746 C-5.93077668 -0.72930132 -3.84318432 -0.60681858 0 0 Z " fill="#000000" transform="translate(229,327)"/>
<path d="M0 0 C3.75425648 2.7899608 4.88487879 4.27678524 5.62818909 8.94641113 C5.65473718 10.51678437 5.65387407 12.08777057 5.63110352 13.65820312 C5.63825882 14.51896957 5.64541412 15.37973602 5.65278625 16.2665863 C5.66966325 19.10535122 5.6502769 21.94253465 5.62890625 24.78125 C5.62973504 26.757529 5.63219481 28.73380793 5.63621521 30.71008301 C5.63907253 34.84941386 5.6243783 38.98820342 5.59692383 43.12744141 C5.56284133 48.43057706 5.56885997 53.73274484 5.5875864 59.03592682 C5.59816014 63.11606905 5.58921514 67.19598646 5.57420158 71.27610779 C5.56902207 73.23131136 5.56949878 75.18653844 5.57574654 77.14173889 C5.58120322 79.87560423 5.56080945 82.6080889 5.53344727 85.34179688 C5.53997314 86.148181 5.54649902 86.95456512 5.55322266 87.78538513 C5.48891139 91.56845021 5.14116584 93.77794528 3.09165955 97.00183105 C1 99 1 99 -1 99.62890625 C-1.66 99.60699219 -2.32 99.58507812 -3 99.5625 C-3.66 99.56378906 -4.32 99.56507813 -5 99.56640625 C-8.02327056 98.71020658 -9.09324015 97.51033324 -11 95 C-11.39451796 91.96398473 -11.54718109 89.2913231 -11.51757812 86.25585938 C-11.5245874 85.37412552 -11.53159668 84.49239166 -11.53881836 83.5839386 C-11.55641921 80.67022175 -11.5447682 77.75747667 -11.53125 74.84375 C-11.53394431 72.81880507 -11.53782622 70.7938614 -11.54284668 68.7689209 C-11.54874456 64.52534668 -11.54016931 60.28210928 -11.52148438 56.03857422 C-11.4986948 50.59746237 -11.51181631 45.15713971 -11.53577423 39.71605682 C-11.55022428 35.53474983 -11.54562983 31.35363012 -11.53526306 27.1723175 C-11.53259359 25.16604011 -11.53587327 23.15974574 -11.54518127 21.15348816 C-11.5553337 18.34991376 -11.53986417 15.5476196 -11.51757812 12.74414062 C-11.52567505 11.9138887 -11.53377197 11.08363678 -11.54211426 10.22822571 C-11.48910401 6.63098311 -11.32068574 4.4431102 -9.18249512 1.48864746 C-5.93077668 -0.72930132 -3.84318432 -0.60681858 0 0 Z " fill="#000000" transform="translate(326,327)"/>
<path d="M0 0 C2.19421387 1.47302246 2.19421387 1.47302246 4 4 C4.39451796 7.03601527 4.54718109 9.7086769 4.51757812 12.74414062 C4.5245874 13.62587448 4.53159668 14.50760834 4.53881836 15.4160614 C4.55641921 18.32977825 4.5447682 21.24252333 4.53125 24.15625 C4.53394431 26.18119493 4.53782622 28.2061386 4.54284668 30.2310791 C4.54874456 34.47465332 4.54016931 38.71789072 4.52148438 42.96142578 C4.4986948 48.40253763 4.51181631 53.84286029 4.53577423 59.28394318 C4.55022428 63.46525017 4.54562983 67.64636988 4.53526306 71.8276825 C4.53259359 73.83395989 4.53587327 75.84025426 4.54518127 77.84651184 C4.5553337 80.65008624 4.53986417 83.4523804 4.51757812 86.25585938 C4.52567505 87.0861113 4.53377197 87.91636322 4.54211426 88.77177429 C4.48910401 92.36901689 4.32068574 94.5568898 2.18249512 97.51135254 C-1.06922332 99.72930132 -3.15681568 99.60681858 -7 99 C-10.732326 96.21938403 -11.88260767 94.7382965 -12.62145996 90.09155273 C-12.64497241 88.53907639 -12.64106815 86.9860332 -12.61523438 85.43359375 C-12.62078339 84.58258087 -12.6263324 83.73156799 -12.63204956 82.85476685 C-12.64383729 80.0484341 -12.6195801 77.24371923 -12.59375 74.4375 C-12.59203859 72.48364333 -12.59210489 70.52978436 -12.59387207 68.57592773 C-12.59221932 64.48366286 -12.57352948 60.39194611 -12.54199219 56.29980469 C-12.50231487 51.05731165 -12.49794726 45.81553644 -12.50545502 40.57292175 C-12.50852624 36.53911781 -12.49639872 32.50547491 -12.47932434 28.47171021 C-12.47229878 26.53883881 -12.46916927 24.60594916 -12.47001648 22.67306519 C-12.46821644 19.97051075 -12.44681706 17.26881242 -12.41992188 14.56640625 C-12.42285248 13.76937286 -12.42578308 12.97233948 -12.42880249 12.15115356 C-12.35912076 7.60737293 -11.84239317 4.60393839 -9 1 C-5.90826248 -0.54586876 -3.40570448 -0.29359521 0 0 Z " fill="#000000" transform="translate(278,327)"/>
</svg>
